#!OML:ASF G:\JayActor3\Patient Classification 1\Patient 1\Session 6\male.ASF
:FULLY-SPECIFIED
:DEGREES
1078
root 9.00624 16.2367 -2.87067 4.10007 -46.1334 -9.05666
lowerback -0.767168 -2.56588 2.65534
upperback 0.563703 -3.49906 2.61694
thorax 1.01322 -1.74872 1.13987
lowerneck 2.35322 -6.75225 -0.54409
upperneck 8.22108 -8.77493 -6.06387
head 1.92573 -4.56576 -1.89537
rclavicle -1.02098e-013 -9.93923e-015
rhumerus -14.1687 14.6805 -78.0786
rradius 113.079
rwrist -82.728
rhand -19.6232 -18.9503
rfingers 7.12502
rthumb 6.70359 -48.8242
lclavicle -1.02098e-013 -9.93923e-015
lhumerus -14.9434 -12.5041 89.543
lradius 113.257
lwrist 58.6662
lhand -39.2367 -9.41692
lfingers 7.12502
lthumb -12.2319 20.2054
rfemur -15.1685 7.04334 27.6727
rtibia 38.7749
rfoot -19.4482 -1.77875
rtoes 8.31665
lfemur -0.925824 5.91606 -20.6816
ltibia 25.7832
lfoot -34.9924 28.7318
ltoes 10.3473
1079
root 9.00739 16.2368 -2.86679 4.15134 -46.2017 -9.09016
lowerback -0.783666 -2.59303 2.65392
upperback 0.544636 -3.53552 2.62727
thorax 1.0037 -1.7672 1.15043
lowerneck 2.31907 -6.73074 -0.539758
upperneck 8.34038 -8.73931 -6.12021
head 1.96908 -4.55281 -1.92002
rclavicle -3.54427e-014 -1.5207e-014
rhumerus -14.4134 14.6646 -78.3291
rradius 113.176
rwrist -82.715
rhand -19.9722 -18.8811
rfingers 7.12502
rthumb 6.36663 -48.7655
lclavicle -3.54427e-014 -1.5207e-014
lhumerus -15.1179 -12.5387 89.682
lradius 113.057
lwrist 58.7513
lhand -39.3908 -9.44722
lfingers 7.12502
lthumb -12.3804 20.1662
rfemur -15.1997 7.08533 27.6806
rtibia 38.7872
rfoot -19.4332 -1.76513
rtoes 8.31178
lfemur -0.936214 5.86653 -20.7014
ltibia 25.7793
lfoot -35.0929 28.7959
ltoes 10.4127
1080
root 9.00855 16.2368 -2.8631 4.2008 -46.2707 -9.12515
lowerback -0.794804 -2.61971 2.65262
upperback 0.526486 -3.57116 2.63813
thorax 0.992149 -1.78528 1.16173
lowerneck 2.28212 -6.70827 -0.534381
upperneck 8.46051 -8.70207 -6.17939
head 2.01319 -4.5392 -1.94594
rclavicle -2.64384e-014 -1.28216e-014
rhumerus -14.6572 14.645 -78.5812
rradius 113.263
rwrist -82.7251
rhand -20.3288 -18.8173
rfingers 7.12502
rthumb 6.02242 -48.7117
lclavicle -2.64384e-014 -1.28216e-014
lhumerus -15.28 -12.5558 89.8332
lradius 112.858
lwrist 58.8529
lhand -39.5265 -9.43153
lfingers 7.12502
lthumb -12.5113 20.1739
rfemur -15.2276 7.12735 27.6905
rtibia 38.7978
rfoot -19.4175 -1.75445
rtoes 8.30684
lfemur -0.944903 5.82291 -20.7177
ltibia 25.7767
lfoot -35.1876 28.8553
ltoes 10.4777
1081
root 9.00971 16.2368 -2.85952 4.24597 -46.3402 -9.1583
lowerback -0.801384 -2.64558 2.65015
upperback 0.509443 -3.60552 2.64838
thorax 0.979227 -1.80274 1.17325
lowerneck 2.24162 -6.68514 -0.526329
upperneck 8.58223 -8.66351 -6.24252
head 2.05834 -4.52508 -1.97384
rclavicle -1.96393e-014 -2.25621e-014
rhumerus -14.9022 14.6188 -78.8356
rradius 113.342
rwrist -82.7603
rhand -20.6918 -18.7608
rfingers 7.12502
rthumb 5.67192 -48.6649
lclavicle -1.96393e-014 -2.25621e-014
lhumerus -15.4298 -12.5586 89.9951
lradius 112.657
lwrist 58.9667
lhand -39.6461 -9.3827
lfingers 7.12502
lthumb -12.6266 20.2157
rfemur -15.2519 7.16741 27.6996
rtibia 38.8071
rfoot -19.4015 -1.74377
rtoes 8.30461
lfemur -0.950881 5.78693 -20.7326
ltibia 25.7742
lfoot -35.2747 28.909
ltoes 10.5402
1082
root 9.01086 16.2369 -2.856 4.28534 -46.4098 -9.1873
lowerback -0.804632 -2.67026 2.645
upperback 0.493832 -3.63816 2.65771
thorax 0.966022 -1.81935 1.18548
lowerneck 2.19653 -6.66175 -0.514985
upperneck 8.70652 -8.62402 -6.31063
head 2.10494 -4.5107 -2.00424
rclavicle 4.36208e-014 -5.96354e-015
rhumerus -15.1493 14.5845 -79.0914
rradius 113.414
rwrist -82.8183
rhand -21.0606 -18.7126
rfingers 7.12502
rthumb 5.31587 -48.6259
lclavicle 4.36208e-014 -5.96354e-015
lhumerus -15.5723 -12.5553 90.1632
lradius 112.453
lwrist 59.0946
lhand -39.7559 -9.32095
lfingers 7.12502
lthumb -12.7324 20.2709
rfemur -15.273 7.20447 27.7057
rtibia 38.8159
rfoot -19.386 -1.73105
rtoes 8.30629
lfemur -0.95339 5.75792 -20.7483
ltibia 25.7705
lfoot -35.3547 28.9575
ltoes 10.6004
1083
root 9.01198 16.237 -2.85249 4.31874 -46.4796 -9.2115
lowerback -0.806002 -2.69342 2.6362
upperback 0.48005 -3.66868 2.66642
thorax 0.953838 -1.8349 1.19918
lowerneck 2.14599 -6.63855 -0.500618
upperneck 8.83437 -8.58412 -6.38421
head 2.15349 -4.49637 -2.03735
rclavicle 4.33195e-014 -1.2424e-014
rhumerus -15.3989 14.5425 -79.3465
rradius 113.48
rwrist -82.893
rhand -21.4347 -18.6727
rfingers 7.12502
rthumb 4.95467 -48.5948
lclavicle 4.33195e-014 -1.2424e-014
lhumerus -15.7139 -12.555 90.3322
lradius 112.246
lwrist 59.2403
lhand -39.8613 -9.26724
lfingers 7.12502
lthumb -12.834 20.3182
rfemur -15.2911 7.23874 27.7082
rtibia 38.8244
rfoot -19.3712 -1.71551
rtoes 8.31153
lfemur -0.952197 5.73444 -20.7656
ltibia 25.7651
lfoot -35.4288 29.0019
ltoes 10.6579
1084
root 9.01308 16.2372 -2.84898 4.34696 -46.5495 -9.23141
lowerback -0.806639 -2.71484 2.62356
upperback 0.468328 -3.69687 2.67512
thorax 0.943609 -1.84929 1.21501
lowerneck 2.0904 -6.6158 -0.484786
upperneck 8.96587 -8.54418 -6.46247
head 2.20404 -4.48232 -2.07267
rclavicle -6.49933e-014 8.34896e-015
rhumerus -15.6505 14.495 -79.5983
rradius 113.542
rwrist -82.9756
rhand -21.8129 -18.6397
rfingers 7.12502
rthumb 4.5894 -48.5699
lclavicle -6.49933e-014 8.34896e-015
lhumerus -15.8605 -12.5644 90.4979
lradius 112.036
lwrist 59.4077
lhand -39.9667 -9.23526
lfingers 7.12502
lthumb -12.9357 20.3438
rfemur -15.3066 7.27154 27.7072
rtibia 38.833
rfoot -19.3569 -1.69723
rtoes 8.31998
lfemur -0.947567 5.71382 -20.7851
ltibia 25.758
lfoot -35.4994 29.0445
ltoes 10.7124
1085
root 9.01417 16.2374 -2.84547 4.37194 -46.6199 -9.2493
lowerback -0.807097 -2.73445 2.60862
upperback 0.458706 -3.72273 2.68444
thorax 0.935636 -1.8625 1.23274
lowerneck 2.0307 -6.59347 -0.469563
upperneck 9.10094 -8.5043 -6.54364
head 2.25658 -4.4686 -2.10925
rclavicle -4.22355e-014 -1.0138e-014
rhumerus -15.9036 14.4452 -79.8448
rradius 113.599
rwrist -83.057
rhand -22.1941 -18.6116
rfingers 7.12502
rthumb 4.22131 -48.5495
lclavicle -4.22355e-014 -1.0138e-014
lhumerus -16.0157 -12.5865 90.6578
lradius 111.824
lwrist 59.5971
lhand -40.0741 -9.23131
lfingers 7.12502
lthumb -13.0392 20.3411
rfemur -15.3199 7.3043 27.7043
rtibia 38.8415
rfoot -19.3426 -1.67635
rtoes 8.3321
lfemur -0.940152 5.69309 -20.806
ltibia 25.7496
lfoot -35.5688 29.0883
ltoes 10.7638
1086
root 9.0153 16.2376 -2.84198 4.39535 -46.6907 -9.2666
lowerback -0.80768 -2.75246 2.59342
upperback 0.450882 -3.74653 2.69418
thorax 0.929637 -1.87467 1.251
lowerneck 1.96879 -6.57132 -0.456718
upperneck 9.23878 -8.46434 -6.62527
head 2.31071 -4.45511 -2.14591
rclavicle 4.83326e-014 -4.77083e-015
rhumerus -16.158 14.3968 -80.0856
rradius 113.652
rwrist -83.1299
rhand -22.5771 -18.5861
rfingers 7.12502
rthumb 3.85145 -48.531
lclavicle 4.83326e-014 -4.77083e-015
lhumerus -16.1792 -12.6191 90.8121
lradius 111.611
lwrist 59.8048
lhand -40.1828 -9.25292
lfingers 7.12502
lthumb -13.144 20.3128
rfemur -15.332 7.33768 27.7006
rtibia 38.8499
rfoot -19.3274 -1.65275
rtoes 8.34811
lfemur -0.931205 5.67025 -20.8281
ltibia 25.7409
lfoot -35.6387 29.1356
ltoes 10.8114
1087
root 9.01656 16.2377 -2.83853 4.41854 -46.7623 -9.28435
lowerback -0.808121 -2.76918 2.58046
upperback 0.444274 -3.76868 2.70351
thorax 0.924649 -1.88598 1.26759
lowerneck 1.90647 -6.54896 -0.447015
upperneck 9.37874 -8.42399 -6.70511
head 2.36603 -4.44162 -2.18167
rclavicle 8.59744e-015 -8.74653e-015
rhumerus -16.4137 14.3525 -80.3219
rradius 113.701
rwrist -83.1889
rhand -22.9609 -18.5619
rfingers 7.12502
rthumb 3.4809 -48.5133
lclavicle 8.59744e-015 -8.74653e-015
lhumerus -16.3495 -12.6591 90.9615
lradius 111.397
lwrist 60.0236
lhand -40.2914 -9.29466
lfingers 7.12502
lthumb -13.2486 20.2643
rfemur -15.3439 7.37188 27.6965
rtibia 38.8585
rfoot -19.3105 -1.62587
rtoes 8.36873
lfemur -0.922031 5.6436 -20.8513
ltibia 25.7326
lfoot -35.7113 29.1874
ltoes 10.8566
1088
root 9.01799 16.2378 -2.83515 4.44224 -46.8346 -9.30244
lowerback -0.8084 -2.78504 2.57116
upperback 0.438222 -3.78971 2.71137
thorax 0.919818 -1.8967 1.28065
lowerneck 1.8454 -6.52589 -0.44034
upperneck 9.52005 -8.38272 -6.78147
head 2.42209 -4.42778 -2.21591
rclavicle 4.14404e-014 1.59028e-015
rhumerus -16.6708 14.3142 -80.5558
rradius 113.744
rwrist -83.232
rhand -23.3448 -18.5382
rfingers 7.12502
rthumb 3.11016 -48.4952
lclavicle 4.14404e-014 1.59028e-015
lhumerus -16.5237 -12.7026 91.107
lradius 111.183
lwrist 60.2446
lhand -40.3983 -9.34867
lfingers 7.12502
lthumb -13.3517 20.2035
rfemur -15.357 7.40641 27.6919
rtibia 38.8676
rfoot -19.2914 -1.59565
rtoes 8.39269
lfemur -0.914024 5.61304 -20.8758
ltibia 25.7252
lfoot -35.788 29.243
ltoes 10.9025
